# xmcd CD database file
#
# Track frame offsets:
#	150
#	14757
#	29072
#	43252
#	55130
#	68747
#	83485
#	97547
#	112629
#	125967
#	138675
#	152372
#	167027
#	177720
#
# Disc length: 2556 seconds
#
# Revision: 0
# Processed by: cddbd v1.5.2PL0 Copyright (c) Steve Scherf et al.
# Submitted via: CDex 1.77
#
DISCID=ba09fa0e
DTITLE=Ella Fitzgerald - First lady of song CD2
DYEAR=1900
DGENRE=Jazz
TTITLE0=Dedicated to you
TTITLE1=Love you're just a laugh
TTITLE2=You showed me the way
TTITLE3=Cryin' mood
TTITLE4=Just a simple melody
TTITLE5=The dipsy doodle
TTITLE6=Wacky dust
TTITLE7=I'm just a jitterbug
TTITLE8=Pack up your sins and go to the devil
TTITLE9=Everybody step
TTITLE10=My melancholy baby
TTITLE11=All my life
TTITLE12=Did you mean it?
TTITLE13=Goodnight my love
EXTD=
EXTT0=
EXTT1=
EXTT2=
EXTT3=
EXTT4=
EXTT5=
EXTT6=
EXTT7=
EXTT8=
EXTT9=
EXTT10=
EXTT11=
EXTT12=
EXTT13=
PLAYORDER=
